<?xml version="1.0" standalone="no"?>
<!DOCTYPE svg PUBLIC "-//W3C//DTD SVG 20010904//EN"
 "http://www.w3.org/TR/2001/REC-SVG-20010904/DTD/svg10.dtd">
<svg version="1.0" xmlns="http://www.w3.org/2000/svg"
 width="2000.000000pt" height="1817.000000pt" viewBox="0 0 2000.000000 1817.000000"
 preserveAspectRatio="xMidYMid meet">

<g transform="translate(0.000000,1817.000000) scale(0.100000,-0.100000)"
fill="#000000" stroke="none">
<path d="M9966 15834 c-20 -19 -20 -35 -1 -60 12 -16 14 -130 15 -806 0 -434
2 -788 4 -788 2 0 11 -3 20 -6 15 -6 16 69 16 794 0 523 3 803 10 807 14 9 13
48 -2 63 -17 17 -44 15 -62 -4z m52 -27 c4 -20 -25 -34 -39 -20 -14 14 1 45
20 41 9 -2 17 -11 19 -21z"/>
<path d="M9844 15575 c-15 -23 -15 -27 0 -50 14 -22 16 -96 16 -720 0 -693 0
-696 20 -685 20 11 20 21 20 705 0 396 4 695 9 695 16 0 19 38 4 59 -19 28
-49 26 -69 -4z m53 -6 c15 -15 5 -39 -17 -39 -22 0 -32 24 -17 39 6 6 14 11
17 11 3 0 11 -5 17 -11z"/>
<path d="M10086 15584 c-20 -20 -20 -48 -1 -64 13 -11 15 -102 15 -706 0 -382
2 -694 4 -694 2 0 11 -3 20 -6 15 -6 16 60 16 699 0 460 3 708 10 712 17 11
11 54 -9 65 -27 14 -37 13 -55 -6z m52 -27 c4 -21 -25 -34 -40 -19 -8 8 -8 16
2 27 16 19 34 15 38 -8z"/>
<path d="M8600 15330 c-24 -24 -24 -30 -5 -56 12 -16 14 -70 15 -309 l0 -290
185 -185 185 -185 0 -157 0 -158 -47 0 -48 0 2 153 2 153 -184 184 -185 185 0
192 c0 117 4 194 10 198 14 9 13 48 -2 63 -19 19 -46 14 -63 -12 -15 -23 -12
-56 6 -56 5 0 9 -90 9 -203 l0 -202 185 -185 185 -185 0 -142 0 -143 -45 0
-45 0 0 118 0 117 -140 140 c-98 98 -140 147 -140 163 0 28 -43 51 -68 35 -37
-23 -21 -83 22 -83 14 0 66 -46 154 -134 l132 -134 0 -111 0 -111 -35 0 -35 0
0 78 0 77 -205 205 c-142 142 -205 212 -205 227 0 50 -74 62 -91 14 -10 -25
19 -61 49 -61 9 0 106 -89 215 -198 l197 -197 0 -73 0 -72 -35 0 c-34 0 -35 1
-35 42 0 40 -5 46 -145 188 -80 80 -145 153 -145 162 0 9 -10 24 -22 32 -30
22 -63 0 -63 -40 0 -24 6 -31 33 -40 21 -7 82 -59 168 -145 117 -117 134 -138
134 -166 l0 -33 -602 0 c-331 0 -599 -2 -596 -5 9 -9 582 -186 683 -210 192
-47 304 -60 550 -60 142 0 256 5 298 13 37 6 97 17 135 23 176 29 415 106 599
195 l93 44 0 168 0 167 -180 180 -180 180 0 202 c0 124 4 204 10 208 20 13 11
55 -15 67 -21 9 -28 8 -45 -7 -24 -21 -26 -48 -5 -65 12 -10 15 -47 15 -214
l0 -201 180 -180 180 -180 0 -162 0 -163 -45 0 -45 0 0 156 0 156 -185 187
-185 186 0 276 c0 234 2 278 15 289 19 16 19 44 -1 64 -23 24 -53 20 -66 -10
-10 -20 -9 -30 6 -55 15 -26 17 -59 15 -310 l-2 -281 182 -182 181 -181 0
-148 0 -147 -45 0 -45 0 0 143 0 142 -185 185 -185 185 0 183 c0 151 3 187 16
207 15 23 15 27 0 50 -18 28 -28 30 -57 15 -20 -11 -27 -64 -9 -75 6 -4 10
-83 10 -203 l0 -197 185 -185 185 -185 0 -132 0 -133 -40 0 -40 0 0 90 c0 53
4 90 10 90 16 0 12 56 -5 70 -41 34 -97 -29 -61 -69 12 -13 16 -38 16 -99 l0
-82 -45 0 -45 0 0 178 0 177 -185 185 -185 185 0 194 c0 167 2 197 17 213 13
15 14 23 5 44 -10 21 -18 25 -45 22 -27 -3 -33 -7 -35 -32 -2 -16 1 -33 7 -39
7 -7 11 -82 11 -212 l0 -200 185 -185 185 -185 0 -172 0 -173 -45 0 -45 0 0
168 0 168 -185 183 -185 184 0 281 c1 231 3 284 15 300 8 11 15 23 15 28 0 11
-38 48 -50 48 -5 0 -19 -9 -30 -20z m53 -24 c7 -17 -18 -40 -33 -31 -5 3 -10
15 -10 26 0 23 35 27 43 5z m515 -29 c4 -20 -25 -34 -40 -19 -15 15 -1 44 19
40 10 -2 19 -11 21 -21z m-382 -118 c8 -14 -21 -43 -35 -35 -6 4 -11 16 -11
27 0 21 34 27 46 8z m512 -32 c4 -20 -25 -34 -39 -20 -14 14 1 45 20 41 9 -2
17 -11 19 -21z m-780 -31 c6 -29 -15 -43 -35 -24 -14 14 -14 20 -3 33 16 19
34 15 38 -9z m518 -45 c-4 -6 -16 -11 -27 -11 -21 0 -27 35 -6 43 16 6 41 -18
33 -32z m-821 -471 c0 -8 -10 -16 -22 -18 -18 -3 -23 2 -23 18 0 16 5 21 23
18 12 -2 22 -10 22 -18z m243 -53 c4 -20 -25 -34 -40 -19 -15 15 -1 44 19 40
10 -2 19 -11 21 -21z m-230 -144 c5 -17 -26 -29 -40 -15 -6 6 -7 15 -3 22 9
14 37 9 43 -7z m1050 -176 c4 -21 -25 -34 -40 -19 -8 8 -8 16 2 27 16 19 34
15 38 -8z"/>
<path d="M11341 15333 c-25 -17 -27 -45 -6 -63 13 -11 15 -56 15 -294 l0 -281
-185 -185 -185 -185 0 -167 0 -168 -45 0 -45 0 0 173 0 172 180 180 180 180 0
207 c0 129 4 208 10 208 16 0 23 49 10 65 -7 8 -25 15 -41 15 -36 0 -50 -39
-26 -79 12 -22 14 -58 11 -211 l-4 -185 -180 -180 -180 -180 0 -183 0 -182
-45 0 -45 0 0 80 c0 57 5 88 16 105 15 23 15 27 0 50 -9 14 -25 25 -36 25 -11
0 -27 -11 -36 -25 -15 -23 -15 -27 0 -50 11 -17 16 -48 16 -105 l0 -80 -40 0
-40 0 0 133 0 132 180 180 180 180 0 201 c0 167 3 204 15 214 22 18 18 47 -9
65 -45 29 -82 -14 -52 -60 13 -20 16 -57 16 -207 l0 -183 -185 -185 -185 -185
0 -142 0 -143 -47 0 -48 0 -2 143 -3 142 185 185 185 185 0 287 c0 253 2 290
17 316 17 29 17 31 -1 51 -21 24 -46 27 -64 9 -16 -16 -15 -51 1 -67 9 -9 12
-80 10 -293 l-2 -282 -180 -180 -181 -181 0 -126 c0 -70 -3 -141 -6 -158 -6
-29 -9 -31 -50 -31 l-44 0 0 158 0 157 185 185 185 185 0 207 c0 116 4 208 9
208 18 0 21 33 6 56 -19 29 -39 30 -65 4 -19 -19 -18 -47 2 -61 5 -3 9 -93 9
-201 l0 -196 -186 -184 -186 -183 3 -170 3 -170 124 -56 c211 -96 422 -158
686 -201 125 -20 514 -17 650 5 105 18 282 58 335 76 14 5 70 23 125 40 55 16
177 55 270 84 l170 55 -595 1 -596 1 -2 48 -2 49 140 139 c77 76 148 141 158
143 44 9 58 61 22 81 -29 16 -59 3 -66 -28 -4 -16 -62 -83 -147 -169 l-141
-142 -2 -58 -2 -58 -36 -3 -36 -3 0 88 0 88 203 202 c130 130 211 203 226 205
49 6 40 88 -9 88 -19 0 -50 -35 -50 -56 0 -6 -93 -103 -206 -216 l-205 -204 3
-97 3 -97 -37 0 -38 0 0 128 0 127 133 133 c83 83 140 132 153 132 39 0 60 50
32 78 -27 27 -78 7 -78 -31 0 -11 -59 -78 -140 -160 l-140 -141 0 -133 0 -133
-45 0 -45 0 0 146 0 146 185 184 185 185 0 198 c0 127 4 201 11 208 6 6 9 23
7 39 -2 24 -8 29 -35 32 -24 2 -34 -2 -43 -18 -12 -22 -5 -60 11 -60 5 0 9
-80 9 -193 l0 -192 -185 -185 -185 -185 0 -152 0 -153 -45 0 -45 0 0 158 0
157 185 186 185 186 0 287 c0 187 4 294 11 308 25 47 -18 91 -60 61z m49 -32
c0 -27 -19 -36 -37 -18 -18 18 -9 37 18 37 12 0 19 -7 19 -19z m-520 -16 c13
-16 6 -35 -15 -35 -18 0 -28 17 -21 35 7 19 20 19 36 0z m386 -126 c3 -6 0
-17 -7 -25 -18 -17 -44 -2 -36 20 7 18 33 21 43 5z m-519 -20 c16 -16 5 -39
-18 -39 -12 0 -19 7 -19 18 0 31 17 41 37 21z m120 -21 c-3 -8 -6 -5 -6 6 -1
11 2 17 5 13 3 -3 4 -12 1 -19z m663 -27 c0 -26 -17 -36 -35 -21 -18 15 -8 40
16 40 12 0 19 -7 19 -19z m-510 -25 c0 -18 -21 -35 -36 -29 -19 7 -17 30 3 42
20 11 33 6 33 -13z m-153 -58 c-3 -7 -5 -2 -5 12 0 14 2 19 5 13 2 -7 2 -19 0
-25z m-127 2 c0 -5 -5 -10 -11 -10 -5 0 -7 5 -4 10 3 6 8 10 11 10 2 0 4 -4 4
-10z m-3 -112 c-3 -8 -6 -5 -6 6 -1 11 2 17 5 13 3 -3 4 -12 1 -19z m1101
-286 c3 -17 -2 -22 -17 -22 -14 0 -21 6 -21 18 0 38 33 41 38 4z m-243 -56 c0
-22 -14 -29 -34 -17 -19 12 -6 43 16 39 10 -2 18 -12 18 -22z m230 -142 c0
-10 -8 -20 -18 -22 -22 -4 -35 27 -16 39 20 12 34 5 34 -17z m-1057 -212 c3
-16 -2 -22 -16 -22 -24 0 -35 23 -19 39 16 16 31 8 35 -17z"/>
<path d="M9406 14714 c-30 -29 -14 -69 30 -79 11 -2 83 -67 162 -144 l142
-142 0 -155 c0 -152 0 -154 20 -144 19 10 20 21 20 163 l0 152 -150 150 c-104
103 -150 157 -150 172 0 21 -25 43 -49 43 -5 0 -17 -7 -25 -16z m52 -33 c-2
-9 -11 -17 -21 -19 -21 -4 -35 27 -17 38 19 12 42 0 38 -19z"/>
<path d="M10538 14719 c-10 -5 -18 -20 -18 -32 0 -15 -47 -69 -150 -172 l-150
-150 0 -156 c0 -134 2 -158 16 -163 9 -3 18 -6 20 -6 3 0 4 70 3 156 l-1 157
143 143 c99 99 151 144 166 144 33 0 48 35 28 66 -17 26 -30 29 -57 13z m40
-37 c3 -17 -2 -22 -17 -22 -14 0 -21 6 -21 18 0 38 33 41 38 4z"/>
<path d="M4637 13976 c-50 -18 -76 -42 -98 -91 -18 -39 -19 -159 -19 -3337 l0
-3298 724 0 725 0 3 -22 3 -23 4039 -3 c2868 -1 4043 1 4052 9 7 6 10 17 7 25
-4 12 97 14 726 14 l731 0 0 3300 c0 3219 0 3302 -19 3338 -23 46 -46 67 -94
87 -32 13 -189 15 -1332 15 l-1295 0 0 -22 c0 -13 9 -84 20 -158 74 -499 99
-728 109 -994 13 -350 -8 -745 -58 -1076 -29 -195 -91 -495 -125 -610 -8 -25
-24 -81 -36 -125 -30 -108 -93 -294 -151 -445 -352 -918 -938 -1674 -1672
-2159 -248 -164 -463 -272 -769 -386 l-117 -44 -165 64 c-481 186 -832 406
-1240 780 -284 260 -550 596 -800 1013 -72 119 -243 467 -304 617 -102 251
-252 712 -252 773 0 10 -7 28 -16 40 -8 12 -12 26 -9 32 3 5 0 7 -8 5 -7 -3
-22 3 -32 15 -18 20 -18 20 8 20 31 0 30 -2 16 56 -9 36 -14 42 -25 33 -11 -9
-11 -15 -3 -25 9 -12 4 -14 -29 -14 -53 0 -58 10 -21 42 16 15 29 24 29 21 0
-2 7 3 16 11 14 15 14 24 -1 109 -41 234 -62 405 -79 667 -30 446 -19 691 56
1255 15 121 34 261 42 310 7 50 16 114 20 143 l7 52 -1263 0 c-1039 -1 -1270
-3 -1301 -14z m2473 -306 c-21 -7 -22 -8 -5 -10 17 -2 16 -3 -5 -10 -24 -8
-24 -8 -2 -9 22 -1 31 -16 12 -23 -5 -1 -11 -21 -14 -43 -2 -22 -8 -50 -12
-62 l-9 -21 -27 23 c-16 13 -28 33 -28 44 0 46 -78 71 -106 34 -29 -39 -9 -82
46 -98 35 -11 51 -25 67 -63 7 -18 17 -31 21 -28 4 2 8 -4 8 -15 0 -10 -3 -19
-7 -19 -4 0 -9 -9 -12 -20 -3 -11 -9 -20 -14 -20 -4 0 -58 49 -119 108 -74 71
-113 117 -118 137 -11 42 -24 55 -57 55 -36 0 -64 -38 -55 -75 5 -18 16 -27
44 -34 28 -8 63 -37 142 -118 151 -155 191 -200 160 -181 -24 15 -25 15 -25
-14 0 -17 5 -26 11 -24 7 3 10 -3 7 -15 -9 -31 -27 -22 -97 46 -46 45 -66 73
-66 90 0 41 -63 61 -94 29 -34 -34 -8 -104 39 -104 25 0 212 -189 198 -199
-34 -25 -36 -41 -8 -78 15 -21 -46 35 -137 125 l-164 163 -234 5 c-189 3 -236
7 -250 19 -36 32 -90 5 -90 -46 0 -52 61 -79 100 -44 12 11 58 15 210 18 107
2 206 0 220 -5 29 -11 301 -288 294 -300 -3 -4 2 -8 10 -8 8 0 18 -5 22 -12 4
-7 3 -8 -4 -4 -16 10 -15 -17 0 -32 9 -9 9 -12 -1 -12 -11 0 -11 -3 -1 -15 7
-8 8 -15 3 -15 -5 0 -77 67 -159 150 l-149 149 -337 1 c-297 0 -338 2 -353 16
-19 20 -59 21 -80 4 -18 -15 -20 -71 -3 -88 17 -17 73 -15 88 3 11 13 60 15
329 15 l317 0 161 -162 c107 -110 162 -172 165 -190 3 -16 1 -28 -4 -28 -5 0
-2 -7 6 -16 9 -8 16 -21 16 -27 0 -10 -71 57 -270 256 l-69 68 -237 -2 c-208
-1 -239 1 -249 15 -14 19 -66 21 -83 4 -15 -15 -16 -78 0 -78 6 0 20 -8 30
-17 17 -15 20 -15 48 5 33 25 49 26 312 22 l147 -2 175 -179 c129 -132 174
-184 169 -196 -5 -12 -2 -15 8 -11 10 4 14 -4 15 -29 1 -27 -2 -33 -14 -28
-12 5 -12 1 3 -17 11 -13 1 -5 -22 16 -23 22 -40 43 -37 48 3 5 1 7 -4 6 -12
-4 -172 144 -166 154 3 4 -103 8 -235 8 -138 0 -241 4 -243 9 -7 20 -54 22
-75 4 -33 -28 -37 -59 -14 -82 25 -25 79 -28 87 -6 5 13 40 15 224 15 l217 0
89 -92 c49 -50 107 -108 129 -129 22 -22 36 -39 31 -39 -5 0 -17 10 -27 22
-11 11 -19 17 -19 12 0 -4 16 -25 37 -46 31 -32 34 -39 23 -53 -12 -14 -16
-13 -41 11 -16 15 -26 32 -22 37 3 6 2 7 -4 4 -5 -3 -52 35 -103 86 l-93 91
-333 -3 c-294 -2 -336 -1 -350 13 -16 17 -61 21 -80 8 -16 -10 -26 -49 -19
-70 8 -27 49 -44 80 -32 14 5 25 14 25 20 0 7 109 10 322 10 l322 0 104 -107
c135 -140 203 -219 195 -227 -4 -3 -17 4 -30 16 -26 25 -32 14 -6 -14 9 -10
14 -20 12 -23 -3 -2 -65 54 -138 125 l-133 129 -231 2 c-212 1 -233 3 -257 20
-20 16 -32 18 -51 11 -40 -16 -50 -34 -39 -74 12 -44 46 -56 90 -33 23 12 71
15 246 15 l217 0 119 -121 c65 -66 116 -125 112 -130 -3 -5 0 -8 8 -7 7 2 12
-3 10 -10 -1 -6 1 -11 5 -11 23 4 35 -3 30 -15 -3 -8 2 -20 11 -28 16 -12 16
-11 2 7 -12 17 -12 18 0 7 8 -7 15 -18 15 -25 1 -7 6 -11 13 -10 6 2 9 -4 6
-12 -4 -8 -10 -15 -15 -15 -5 0 -2 -12 8 -27 17 -27 17 -28 -1 -13 -66 52
-245 241 -248 261 -7 54 -66 75 -109 40 -20 -16 -21 -22 -13 -52 7 -27 17 -36
44 -44 47 -13 298 -263 278 -278 -10 -7 -9 -8 3 -4 25 8 58 -33 61 -75 2 -26
7 -34 18 -31 13 4 13 4 0 -6 -8 -6 -28 -11 -45 -12 -27 -2 -25 -3 10 -9 22 -4
-251 -8 -607 -9 -599 -1 -649 0 -677 17 -28 15 -33 16 -58 2 -39 -22 -45 -80
-9 -103 27 -18 66 -15 82 8 10 13 91 15 642 15 557 0 631 -2 626 -15 -4 -10 0
-15 12 -16 13 0 14 -2 5 -6 -11 -5 -11 -7 0 -14 10 -6 7 -9 -11 -10 -23 0 -23
-1 -5 -9 11 -5 -318 -9 -766 -9 -691 -1 -788 1 -793 14 -8 22 -75 20 -92 -2
-32 -43 -7 -103 43 -103 17 0 36 7 43 15 11 13 113 15 808 15 637 0 794 -3
784 -12 -17 -17 -1190 -24 -1206 -8 -5 5 -32 10 -59 10 -43 0 -48 -2 -37 -15
11 -13 96 -15 650 -15 558 0 639 -2 644 -15 5 -13 -70 -15 -640 -15 -564 0
-645 2 -650 15 -7 17 -41 19 -78 5 -21 -8 -26 -16 -26 -45 0 -20 4 -44 9 -54
12 -22 74 -27 95 -6 13 14 91 15 672 15 361 -1 659 1 662 4 3 3 18 6 34 6 28
0 37 -13 18 -25 -6 -4 -8 -11 -4 -16 3 -5 17 0 31 11 43 33 60 4 21 -37 -25
-27 -73 -30 -106 -7 -26 18 -46 10 -39 -16 5 -21 -29 -54 -45 -44 -7 4 -8 3
-4 -5 9 -14 -12 -43 -25 -35 -5 3 -9 -1 -9 -8 0 -8 -45 -58 -101 -112 -78 -77
-103 -96 -110 -85 -7 10 -8 7 -7 -11 3 -22 -2 -25 -29 -28 -79 -8 -85 -116 -8
-135 18 -4 18 -5 -3 -6 -12 0 -31 4 -41 11 -24 15 -67 -10 -67 -39 0 -18 4
-19 34 -11 19 5 37 7 40 3 17 -17 -38 -25 -183 -25 -109 0 -165 -4 -173 -12
-9 -9 -13 -7 -18 6 -5 12 -9 14 -14 6 -6 -9 -13 -9 -28 -1 -34 18 -90 14 -102
-8 -14 -26 -13 -64 2 -79 9 -9 8 -12 -4 -12 -19 0 -29 21 -22 47 3 10 0 29 -6
43 l-11 25 5 -24 c3 -14 2 -44 -1 -68 -5 -35 -8 -41 -19 -32 -8 6 -15 8 -15 3
-1 -5 -2 -15 -3 -23 -1 -8 -16 -14 -44 -15 -48 -3 -61 -15 -62 -61 -1 -28 -2
-29 -10 -7 -12 29 -18 28 -13 -2 3 -13 0 -27 -6 -30 -6 -4 -2 -15 12 -29 l22
-22 -25 -4 c-14 -1 -28 -7 -31 -13 -4 -5 -13 -3 -22 6 -8 9 -25 16 -36 16 -16
0 -21 6 -21 25 l0 25 -385 0 -385 0 0 -70 c0 -40 -4 -70 -10 -70 -6 0 -10 -28
-10 -65 0 -62 -14 -115 -32 -115 -4 0 -9 127 -10 283 -2 173 -5 56 -8 -303
l-5 -585 -5 560 -5 560 -5 -490 c-3 -269 -6 406 -8 1501 -1 1095 1 1994 5
1997 3 4 508 7 1122 6 614 -1 1105 -5 1091 -9z m8046 -1825 c0 -1006 -3 -1776
-6 -1710 -6 116 -6 113 -10 -80 -2 -155 -5 -184 -10 -130 -4 39 -8 109 -9 158
l-1 87 -42 2 -43 1 38 4 37 4 0 50 c0 27 -4 49 -10 49 -5 0 -10 9 -10 20 0 19
-7 20 -179 20 -134 0 -181 -3 -184 -12 -3 -8 -6 -6 -6 5 -1 15 -13 17 -116 17
-96 0 -115 3 -115 15 0 11 -12 15 -45 15 l-45 0 0 60 0 60 -65 0 -65 0 0 -75
c0 -60 -3 -75 -15 -75 -12 0 -15 15 -15 74 0 41 -3 77 -7 79 -5 3 -7 -30 -5
-74 3 -67 1 -79 -12 -79 -13 0 -16 14 -16 80 0 73 -2 80 -20 80 -15 0 -20 7
-21 28 -2 26 -2 26 -6 2 -6 -32 -23 -51 -23 -26 0 14 -3 16 -14 7 -11 -9 -12
-6 -8 16 3 16 7 22 9 16 7 -20 23 -15 23 7 0 11 -6 20 -12 20 -15 1 -54 50
-39 50 5 0 17 -10 25 -22 l16 -22 0 27 c0 17 -5 27 -12 26 -42 -5 -70 2 -64
16 8 22 -12 18 -24 -5 -9 -16 -8 -20 7 -21 16 0 16 -1 -2 -9 -26 -11 -44 -12
-26 -1 9 6 10 11 3 15 -6 4 -9 13 -6 21 4 8 -1 18 -10 21 -9 3 -16 15 -16 26
0 23 -31 59 -37 41 -2 -6 -14 -1 -29 14 -25 25 -54 25 -81 -2 -12 -13 -61 -13
-230 1 l-73 6 0 34 c0 19 -4 34 -9 34 -5 0 -11 9 -14 20 -3 14 -14 20 -31 20
-14 0 -26 5 -26 12 0 6 -3 8 -7 4 -4 -3 -12 8 -17 25 -9 26 -19 35 -51 44 -31
8 -40 16 -40 32 0 12 -3 25 -7 29 -5 4 -8 0 -8 -10 0 -10 -5 -14 -11 -10 -6 3
-9 19 -5 35 3 16 1 29 -4 29 -6 0 -10 -7 -10 -15 0 -8 -5 -15 -11 -15 -6 0 -8
7 -5 16 3 9 2 12 -4 9 -12 -7 -180 152 -180 169 0 6 20 -10 45 -34 55 -54 60
-41 6 18 -32 34 -35 42 -18 36 17 -5 14 1 -14 29 -39 38 -40 47 -2 47 13 0 22
4 19 9 -4 5 0 11 6 14 7 2 -7 9 -32 15 -33 7 128 10 584 11 567 1 631 -1 647
-15 20 -18 83 -12 96 9 11 18 4 70 -12 86 -18 19 0 18 -702 20 -377 1 -604 5
-608 11 -4 7 225 11 637 12 l643 3 -675 5 -675 5 783 3 c685 2 785 0 798 -13
21 -20 70 -19 92 3 23 23 17 77 -11 97 -28 20 -47 19 -77 -5 -24 -19 -46 -20
-756 -20 -627 0 -733 2 -750 15 -10 8 -35 15 -54 17 -19 1 28 5 105 8 l140 6
-125 3 -125 3 85 14 c64 10 220 13 628 14 534 0 542 0 563 -21 l20 -20 -38 5
c-30 4 -33 4 -13 -3 27 -10 104 -13 81 -4 -9 4 -3 10 18 19 26 11 31 18 31 48
0 25 -6 39 -22 50 -28 20 -62 20 -78 1 -11 -13 -93 -15 -629 -15 -401 0 -611
4 -601 10 12 7 12 10 1 10 -7 0 -11 6 -8 14 3 7 0 19 -6 25 -8 8 -8 11 2 11
13 0 12 14 -4 52 -5 13 25 50 126 153 82 83 141 135 153 135 28 0 66 39 66 67
0 30 -34 63 -64 63 -30 0 -54 -22 -63 -58 -7 -28 -109 -140 -174 -193 -29 -23
-38 -26 -42 -15 -3 8 2 25 12 38 10 13 20 31 22 41 2 9 62 76 134 147 l129
130 222 0 c185 0 224 -2 234 -15 13 -16 47 -20 67 -7 21 13 34 61 23 83 -15
28 -58 35 -93 16 -24 -15 -62 -17 -253 -17 l-225 0 -76 -75 c-41 -41 -81 -75
-89 -75 -8 0 -14 -6 -14 -14 0 -14 -56 -61 -73 -61 -5 0 -11 12 -13 26 -2 20
8 37 42 70 24 24 44 48 44 53 0 15 72 86 87 86 7 0 13 6 13 13 0 7 13 26 30
42 l30 29 327 -3 c263 -2 331 -5 347 -17 28 -19 52 -18 76 6 54 54 -23 136
-80 85 -14 -13 -69 -15 -353 -15 l-337 -1 -31 -39 c-18 -22 -37 -40 -43 -40
-6 -1 -31 -25 -54 -55 -38 -48 -47 -53 -64 -44 -17 9 -19 8 -14 -9 5 -13 1
-22 -10 -26 -27 -11 -38 9 -20 36 9 14 14 27 10 30 -3 3 47 59 111 124 l116
119 216 3 c203 3 216 2 229 -16 13 -19 49 -22 74 -7 22 14 28 49 14 78 -12 22
-21 27 -50 27 -22 0 -37 -6 -40 -15 -5 -13 -40 -15 -241 -15 l-234 1 -78 -78
c-99 -99 -119 -115 -126 -102 -4 5 -11 7 -16 4 -10 -7 -11 1 -3 32 4 13 11 20
17 16 6 -4 8 0 5 9 -4 9 49 71 156 181 l161 166 223 3 c159 2 225 0 230 -8 9
-15 50 -20 80 -10 45 15 14 106 -36 106 -10 0 -28 -8 -42 -17 -21 -15 -51 -17
-249 -15 l-226 3 -135 -136 c-74 -74 -140 -133 -147 -130 -7 2 -10 -1 -8 -8 3
-7 -8 -21 -23 -31 -27 -20 -27 -20 -9 0 20 24 22 35 4 28 -8 -3 -13 3 -13 16
0 13 5 19 14 15 9 -3 12 0 9 9 -7 17 26 49 38 39 4 -5 5 -2 1 4 -9 16 259 292
282 291 10 0 154 1 322 1 265 2 306 0 316 -13 16 -22 67 -20 89 4 28 31 13 68
-30 76 -22 4 -41 2 -49 -5 -10 -9 -110 -12 -353 -12 l-338 1 -120 -118 c-68
-66 -127 -115 -135 -113 -8 1 -12 0 -8 -5 12 -12 -12 -33 -29 -27 -12 5 -15 2
-11 -8 4 -10 -1 -15 -12 -15 -10 0 -16 6 -13 13 3 7 9 13 13 13 4 0 11 7 14
16 5 12 2 15 -11 10 -15 -6 -15 -4 2 16 11 13 85 89 164 171 l146 147 211 0
c176 0 214 -3 224 -15 19 -23 77 -19 90 5 18 33 8 73 -20 87 -21 10 -30 9 -58
-8 -32 -18 -51 -20 -254 -19 -216 1 -221 1 -244 -21 -14 -13 -69 -66 -122
-119 -93 -91 -207 -188 -169 -143 13 15 17 31 13 53 -3 23 1 37 15 51 10 10
19 21 19 23 0 15 112 111 140 120 45 14 61 53 36 90 -30 46 -106 24 -106 -30
0 -15 -21 -41 -62 -78 -72 -66 -94 -69 -72 -11 7 18 6 19 -9 6 -10 -8 -20 -11
-24 -7 -4 3 3 13 15 22 12 8 20 20 16 25 -8 14 236 259 258 259 25 0 58 35 58
62 0 28 -28 58 -53 58 -28 0 -57 -28 -57 -55 0 -16 -31 -52 -101 -116 -55 -52
-105 -93 -110 -91 -5 1 -8 -1 -6 -5 6 -20 -17 -15 -32 7 -12 18 -12 22 -2 16
11 -7 13 -4 9 12 -4 14 -2 20 4 16 6 -4 8 1 3 15 -5 17 -3 20 11 14 11 -4 15
-3 10 5 -12 19 17 52 46 52 30 0 48 24 48 62 0 33 -18 48 -56 48 -35 0 -49
-12 -59 -52 -4 -15 -14 -29 -22 -32 -12 -5 -14 -1 -10 14 3 13 -4 31 -20 50
-22 27 -23 30 -6 31 13 1 11 3 -7 9 -23 7 -23 8 10 10 33 2 33 3 10 10 -14 4
-18 9 -10 10 8 1 4 6 -10 10 -14 4 488 7 1115 7 l1140 -2 1 -1830z m-8406
1730 c0 -21 -19 -28 -36 -15 -10 9 -11 16 -3 26 12 15 39 8 39 -11z m6526 -14
c-9 -14 -33 -14 -41 -1 -4 6 -1 18 6 26 11 13 14 13 27 0 8 -8 11 -19 8 -25z
m-6299 3 c8 -21 -13 -42 -28 -27 -13 13 -5 43 11 43 6 0 13 -7 17 -16z m6066
3 c10 -25 -7 -38 -29 -22 -16 13 -17 16 -4 25 20 13 27 13 33 -3z m-6226 -273
c5 -15 -28 -27 -40 -15 -5 5 -6 14 -2 21 8 13 37 9 42 -6z m6391 -1 c-2 -10
-10 -18 -18 -18 -8 0 -16 8 -18 18 -2 12 3 17 18 17 15 0 20 -5 18 -17z m641
-32 c12 -8 13 -12 1 -26 -12 -14 -15 -14 -28 -1 -8 8 -11 19 -8 25 9 13 16 14
35 2z m-7664 -41 c0 -8 -8 -16 -17 -18 -13 -2 -18 3 -18 18 0 15 5 20 18 18 9
-2 17 -10 17 -18z m7910 -111 c5 -13 2 -25 -6 -30 -19 -11 -29 -2 -29 27 0 30
26 32 35 3z m-8158 -35 c8 -20 -8 -36 -26 -25 -15 10 -8 41 9 41 6 0 13 -7 17
-16z m7983 -134 c0 -11 -7 -20 -15 -20 -8 0 -15 9 -15 20 0 11 7 20 15 20 8 0
15 -9 15 -20z m-7805 -21 c7 -20 -7 -38 -28 -39 -14 0 -19 30 -7 45 17 21 27
19 35 -6z m7704 -275 c-9 -11 -15 -12 -25 -3 -11 9 -12 15 -3 25 9 11 15 12
25 3 11 -9 12 -15 3 -25z m-7603 -5 c9 -16 -12 -33 -31 -25 -14 5 -15 9 -5 21
15 18 26 19 36 4z m7849 -139 c0 -22 -29 -18 -33 3 -3 14 1 18 15 15 10 -2 18
-10 18 -18z m-8095 -25 c0 -7 -7 -16 -15 -19 -20 -7 -33 23 -14 34 16 10 29 4
29 -15z m7920 -125 c0 -11 -7 -20 -15 -20 -8 0 -15 9 -15 20 0 11 7 20 15 20
8 0 15 -9 15 -20z m-7747 -17 c4 -3 2 -12 -4 -20 -9 -10 -15 -10 -25 -2 -8 6
-11 15 -8 20 6 11 28 12 37 2z m7237 -177 c-13 -13 -35 7 -25 24 5 8 11 8 21
-1 10 -8 12 -15 4 -23z m-6727 -11 c7 -18 -9 -29 -30 -21 -12 5 -13 9 -3 21
16 19 26 19 33 0z m6437 -15 c0 -5 -5 -10 -11 -10 -5 0 -7 5 -4 10 3 6 8 10
11 10 2 0 4 -4 4 -10z m1294 -465 c3 -9 -1 -18 -10 -22 -19 -7 -28 2 -21 22 8
19 23 19 31 0z m-8738 -26 c8 -14 -11 -33 -25 -25 -11 7 -4 36 9 36 5 0 12 -5
16 -11z m9032 -117 c2 -7 -6 -12 -17 -12 -21 0 -27 11 -14 24 9 9 26 2 31 -12z
m-9322 -23 c10 -17 -13 -36 -27 -22 -12 12 -4 33 11 33 5 0 12 -5 16 -11z
m8968 -74 c-5 -13 -76 -15 -549 -15 -298 0 -584 3 -636 8 l-94 7 120 5 c66 4
355 7 642 8 461 2 522 0 517 -13z m56 -40 c0 -8 -7 -15 -15 -15 -16 0 -20 12
-8 23 11 12 23 8 23 -8z m-8740 -30 c0 -8 -4 -15 -9 -15 -13 0 -22 16 -14 24
11 11 23 6 23 -9z m1484 -180 c-4 -8 -12 -15 -19 -15 -7 0 -18 7 -25 15 -11
13 -8 15 18 15 24 0 30 -4 26 -15z m-115 -22 c-21 -23 -22 -25 -4 -19 20 7 20
7 0 -12 -14 -13 -24 -16 -32 -10 -9 7 -5 17 15 38 34 36 54 39 21 3z m6106
-83 c44 -44 77 -80 75 -80 -3 0 -41 36 -85 80 -44 44 -77 80 -75 80 3 0 41
-36 85 -80z m-6115 21 c10 13 19 19 20 13 0 -19 -36 -45 -53 -38 -11 4 -19 0
-23 -10 -8 -20 -20 -21 -27 -2 -3 8 2 23 11 35 l17 21 18 -21 17 -21 20 23z
m6075 -11 c10 -11 16 -20 13 -20 -3 0 -13 9 -23 20 -10 11 -16 20 -13 20 3 0
13 -9 23 -20z m-6165 -52 c0 -13 -23 -5 -28 10 -2 7 2 10 12 6 9 -3 16 -11 16
-16z m6219 -32 c18 -22 1 -14 -31 13 -14 12 -15 18 -5 29 10 13 12 12 16 -4 1
-10 10 -28 20 -38z m-6244 24 c3 -5 3 -15 -1 -21 -6 -11 -23 6 -24 24 0 10 18
9 25 -3z m45 -15 c-7 -9 -15 -13 -17 -11 -7 7 7 26 19 26 6 0 6 -6 -2 -15z
m100 -9 c0 -3 -4 -8 -10 -11 -5 -3 -10 -1 -10 4 0 6 5 11 10 11 6 0 10 -2 10
-4z m-182 -25 c3 -8 -1 -12 -9 -9 -7 2 -15 10 -17 17 -3 8 1 12 9 9 7 -2 15
-10 17 -17z m222 15 c0 -2 -7 -7 -16 -10 -8 -3 -12 -2 -9 4 6 10 25 14 25 6z
m6133 -23 c-11 -33 -16 -37 -23 -17 -6 17 0 25 27 33 1 1 0 -7 -4 -16z m-6373
-14 c0 -14 -17 -10 -23 5 -4 10 -1 13 9 9 7 -3 14 -9 14 -14z m-44 -22 c-1
-16 -8 -22 -25 -24 l-23 -1 23 23 c13 13 25 24 25 24 1 1 1 -9 0 -22z m64 -2
c-7 -8 -18 -15 -24 -15 -6 0 -2 7 8 15 25 19 32 19 16 0z m6380 0 c10 -12 10
-15 -4 -15 -9 0 -16 7 -16 15 0 8 2 15 4 15 2 0 9 -7 16 -15z m-6280 -9 c0 -3
-4 -8 -10 -11 -5 -3 -10 -1 -10 4 0 6 5 11 10 11 6 0 10 -2 10 -4z m14 -18
c-3 -7 -20 -24 -37 -37 l-32 -25 34 37 c38 40 43 44 35 25z m-216 -27 c3 -8
-1 -12 -9 -9 -7 2 -15 10 -17 17 -3 8 1 12 9 9 7 -2 15 -10 17 -17z m6517 0
c-3 -6 -11 -11 -17 -11 -6 0 -6 6 2 15 14 17 26 13 15 -4z m115 4 c0 -8 -7
-15 -15 -15 -16 0 -20 12 -8 23 11 12 23 8 23 -8z m-6600 -9 c0 -2 -8 -10 -17
-17 -16 -13 -17 -12 -4 4 13 16 21 21 21 13z m-130 -21 c0 -8 -4 -15 -10 -15
-5 0 -10 7 -10 15 0 8 5 15 10 15 6 0 10 -7 10 -15z m74 2 c4 4 4 -1 0 -11 -6
-15 -4 -17 6 -11 9 5 11 4 6 -3 -9 -14 -36 -16 -36 -3 0 5 -3 18 -7 28 -6 15
-4 16 9 6 8 -7 18 -10 22 -6z m6713 -39 c-3 -7 -5 -2 -5 12 0 14 2 19 5 13 2
-7 2 -19 0 -25z m-6547 12 c0 -5 -5 -10 -11 -10 -5 0 -7 5 -4 10 3 6 8 10 11
10 2 0 4 -4 4 -10z m185 -30 c-3 -5 -12 -10 -18 -10 -7 0 -6 4 3 10 19 12 23
12 15 0z m6285 6 c0 -3 -4 -8 -10 -11 -5 -3 -10 -1 -10 4 0 6 5 11 10 11 6 0
10 -2 10 -4z m-6670 -27 c0 -6 -7 -9 -14 -6 -10 4 -13 1 -10 -7 3 -8 1 -17 -4
-20 -5 -3 -9 6 -9 19 0 18 5 25 18 25 11 0 19 -5 19 -11z m6331 -6 c13 -16 12
-17 -3 -4 -17 13 -22 21 -14 21 2 0 10 -8 17 -17z m-6381 -17 c0 -9 -7 -12
-20 -9 -11 3 -20 9 -20 14 0 5 9 9 20 9 11 0 20 -6 20 -14z m-15 -26 c3 -5 1
-10 -4 -10 -6 0 -11 5 -11 10 0 6 2 10 4 10 3 0 8 -4 11 -10z m6650 0 c-3 -5
-12 -10 -18 -10 -7 0 -6 4 3 10 19 12 23 12 15 0z m162 4 c-3 -3 -12 -4 -19
-1 -8 3 -5 6 6 6 11 1 17 -2 13 -5z m447 -44 c-6 -6 -10 -3 -10 10 0 13 4 16
10 10 7 -7 7 -13 0 -20z m-7183 -13 l-24 -22 19 27 c10 14 21 24 23 22 3 -3
-6 -15 -18 -27z m259 9 c0 -2 -8 -10 -17 -17 -16 -13 -17 -12 -4 4 13 16 21
21 21 13z m-222 -40 c-7 -8 -15 -12 -17 -11 -5 6 10 25 20 25 5 0 4 -6 -3 -14z
m-578 -46 c0 -5 -5 -10 -11 -10 -5 0 -7 5 -4 10 3 6 8 10 11 10 2 0 4 -4 4
-10z m70 0 c0 -5 -4 -10 -10 -10 -5 0 -10 5 -10 10 0 6 5 10 10 10 6 0 10 -4
10 -10z m258 -7 c-38 -2 -98 -2 -135 0 -38 2 -7 3 67 3 74 0 105 -1 68 -3z
m7409 1 c-3 -3 -12 -4 -19 -1 -8 3 -5 6 6 6 11 1 17 -2 13 -5z m163 -34 c0 -5
-4 -10 -10 -10 -5 0 -10 5 -10 10 0 6 5 10 10 10 6 0 10 -4 10 -10z m-7637 -7
c-79 -2 -207 -2 -285 0 -79 1 -15 3 142 3 157 0 221 -2 143 -3z m174 1 c-3 -3
-12 -4 -19 -1 -8 3 -5 6 6 6 11 1 17 -2 13 -5z m223 -8 c0 -2 -8 -10 -17 -17
-16 -13 -17 -12 -4 4 13 16 21 21 21 13z m-856 -25 c3 -5 -1 -11 -9 -15 -9 -3
-15 0 -15 9 0 16 16 20 24 6z m7396 -21 c0 -5 -2 -10 -4 -10 -3 0 -8 5 -11 10
-3 6 -1 10 4 10 6 0 11 -4 11 -10z m453 -7 c-7 -2 -19 -2 -25 0 -7 3 -2 5 12
5 14 0 19 -2 13 -5z m-7916 -35 c-3 -8 -6 -5 -6 6 -1 11 2 17 5 13 3 -3 4 -12
1 -19z m823 12 c0 -5 -10 -10 -22 -9 -22 0 -22 1 -3 9 11 5 21 9 23 9 1 1 2
-3 2 -9z m-721 -21 c-16 -10 -23 -4 -14 10 3 6 11 8 17 5 6 -4 5 -9 -3 -15z
m7001 5 c0 0 -8 -8 -18 -17 -16 -15 -18 -15 -18 1 0 10 8 18 18 18 10 0 18 -1
18 -2z m1027 0 c-3 -3 -12 -4 -19 -1 -8 3 -5 6 6 6 11 1 17 -2 13 -5z m-157
-14 c0 -5 -2 -10 -4 -10 -3 0 -8 5 -11 10 -3 6 -1 10 4 10 6 0 11 -4 11 -10z
m187 -6 c-3 -3 -12 -4 -19 -1 -8 3 -5 6 6 6 11 1 17 -2 13 -5z m-8092 -14 c3
-6 -1 -7 -9 -4 -18 7 -21 14 -7 14 6 0 13 -4 16 -10z m113 -88 c3 -51 4 -52
35 -53 38 -1 79 -8 85 -14 3 -3 -3 -14 -13 -25 -13 -14 -31 -20 -62 -20 -36 0
-43 -3 -43 -19 0 -10 7 -21 15 -25 24 -9 18 -24 -18 -41 -18 -8 -37 -25 -42
-37 -14 -30 -41 -46 -56 -31 -14 14 18 62 42 63 11 0 -4 21 -42 60 -33 34 -59
65 -59 69 0 5 14 14 31 22 28 11 33 10 44 -4 20 -27 25 -20 25 33 0 30 4 50
11 50 6 0 9 6 6 13 -3 9 2 13 16 12 19 -1 22 -9 25 -53z m-68 27 c0 -6 -4 -7
-10 -4 -5 3 -10 11 -10 16 0 6 5 7 10 4 6 -3 10 -11 10 -16z m123 -9 c3 -11 2
-20 -3 -20 -8 0 -20 24 -20 41 0 17 17 1 23 -21z m7764 -2 c-3 -8 -6 -5 -6 6
-1 11 2 17 5 13 3 -3 4 -12 1 -19z m-8033 -87 c3 -5 16 -7 29 -4 l22 5 -22
-16 c-23 -18 -53 -12 -53 10 0 16 16 19 24 5z m7131 -11 c3 -5 1 -10 -4 -10
-6 0 -11 5 -11 10 0 6 2 10 4 10 3 0 8 -4 11 -10z m-6995 -107 c0 -11 -32 -43
-43 -43 -6 0 -21 10 -34 22 -13 12 -23 16 -23 10 0 -6 4 -13 9 -17 19 -11 -9
-70 -54 -114 -45 -44 -45 -45 -27 -65 20 -22 41 -56 27 -43 -5 4 -18 -2 -29
-12 -21 -19 -21 -19 -79 35 -60 56 -73 64 -63 39 3 -9 -3 -24 -14 -35 -24 -24
-5 -27 21 -4 14 13 20 13 38 2 20 -12 20 -13 -6 -40 -20 -21 -23 -28 -11 -28
9 0 21 7 28 15 16 20 23 19 37 -4 10 -16 6 -25 -32 -65 l-44 -46 -70 72 -70
71 44 43 c24 24 48 44 54 44 6 0 11 4 11 8 0 5 36 45 79 90 77 80 95 90 129
69 20 -13 14 2 -13 29 -27 27 -32 38 -12 31 6 -2 23 4 36 15 l24 18 43 -45
c24 -25 44 -48 44 -52z m7468 35 c-3 -38 -6 -43 -28 -43 -32 0 -38 31 -13 62
29 37 45 29 41 -19z m497 -18 c3 -5 1 -10 -4 -10 -6 0 -11 5 -11 10 0 6 2 10
4 10 3 0 8 -4 11 -10z m-591 -65 c14 -11 46 -15 106 -15 66 0 87 -3 87 -13 0
-10 -13 -13 -49 -9 -43 4 -48 2 -45 -14 1 -11 6 -25 10 -31 12 -19 -1 -33 -31
-33 -38 0 -145 106 -122 120 19 12 21 12 44 -5z m-6321 -30 c-3 -9 -8 -14 -10
-11 -3 3 -2 9 2 15 9 16 15 13 8 -4z m6317 -68 c-3 -2 -20 15 -39 37 l-35 41
39 -37 c22 -21 37 -39 35 -41z m-84 5 c10 -9 28 -28 39 -42 16 -21 14 -20 -15
5 -58 51 -62 55 -52 55 5 0 18 -8 28 -18z m-9 -34 c22 -20 30 -57 16 -71 -10
-11 -75 62 -69 78 8 21 26 19 53 -7z m-87 -53 c10 -12 7 -19 -17 -39 -21 -19
-25 -27 -16 -36 9 -10 17 -7 34 9 25 23 44 27 54 11 8 -14 -12 -48 -36 -61
-18 -9 -27 -6 -60 27 -21 21 -39 41 -39 44 0 12 45 59 56 59 6 1 17 -6 24 -14z
m215 -5 c-12 -13 -22 -17 -28 -11 -13 13 1 31 25 31 21 0 21 -1 3 -20z m-7828
-55 c3 -9 -3 -25 -12 -35 -23 -25 -11 -39 13 -17 41 37 69 2 32 -39 -18 -18
-20 -24 -8 -24 9 0 21 7 28 15 16 20 39 19 47 -1 6 -16 -61 -94 -82 -94 -6 0
-39 29 -74 64 l-62 63 38 41 c40 42 70 52 80 27z m7491 -57 c9 -9 7 -17 -9
-34 -29 -31 -14 -52 16 -24 24 22 45 20 45 -4 0 -8 -7 -19 -15 -26 -8 -7 -15
-16 -15 -21 0 -14 27 -10 40 6 10 12 16 13 26 4 19 -16 18 -25 -7 -48 -21 -19
-21 -19 -85 44 -35 35 -64 67 -64 71 0 8 40 44 50 44 3 0 11 -5 18 -12z
m-7560 -114 c-4 -33 -3 -34 34 -34 45 0 48 -10 11 -45 -22 -19 -38 -25 -74
-25 -56 0 -80 -20 -55 -45 21 -22 20 -38 -3 -59 -19 -17 -22 -16 -80 42 -34
33 -61 66 -61 74 0 15 123 139 155 156 15 8 26 6 48 -10 24 -17 28 -26 25 -54z
m7722 57 c0 -5 -7 -14 -15 -21 -18 -15 -42 1 -31 19 8 13 46 15 46 2z m-263
-57 c4 -10 0 -20 -10 -26 -17 -9 -24 -38 -9 -38 4 0 16 10 26 21 16 20 19 20
34 6 14 -15 14 -18 -1 -35 -18 -20 -23 -42 -9 -42 5 0 17 9 27 20 14 15 21 17
32 9 7 -6 13 -16 13 -21 0 -14 -37 -51 -48 -47 -5 2 -38 30 -72 62 l-62 58 23
25 c26 28 47 31 56 8z m-82 -124 c12 -14 16 -28 12 -50 -6 -30 -6 -30 35 -30
l42 0 -29 -30 c-23 -24 -37 -30 -69 -30 -23 0 -47 -7 -58 -17 -18 -16 -18 -17
2 -38 l20 -21 -25 -24 -25 -24 -66 66 -65 65 53 58 c86 93 137 115 173 75z
m-7608 -5 c3 -9 -3 -25 -12 -35 -10 -11 -15 -23 -12 -27 4 -3 16 2 27 12 21
19 50 14 50 -10 0 -8 -4 -15 -9 -15 -21 0 -20 -34 1 -57 l22 -23 -22 -22 -21
-22 -59 55 c-33 30 -62 60 -66 68 -4 9 7 29 31 53 40 41 60 47 70 23z m7391
-157 c8 -8 6 -17 -9 -37 -14 -18 -17 -27 -8 -30 7 -2 18 5 26 15 12 17 14 17
30 1 16 -15 16 -18 0 -35 -21 -23 -22 -41 -2 -48 19 -8 19 -38 0 -54 -13 -11
-23 -6 -62 27 -26 21 -55 51 -66 65 l-19 26 38 41 c42 43 53 48 72 29z m-5336
-328 l4 -45 59 -9 c33 -5 62 -10 64 -12 1 -1 -6 -13 -18 -25 -16 -18 -27 -21
-60 -16 -32 4 -41 2 -44 -12 -2 -9 3 -24 12 -34 13 -16 13 -20 -7 -40 l-22
-22 -67 68 -68 67 22 22 23 22 25 -24 25 -23 0 48 c0 37 6 55 22 72 25 27 26
26 30 -37z m-118 -140 c42 -47 43 -51 16 -75 -20 -18 -21 -18 -64 25 l-44 44
21 23 c12 12 25 23 28 23 4 0 23 -18 43 -40z m7522 -67 c2 -7 20 -13 41 -14
21 0 46 -4 56 -8 17 -6 17 -8 -3 -26 -15 -14 -33 -18 -61 -16 -32 2 -39 -1
-39 -16 0 -11 5 -24 12 -31 10 -10 7 -17 -10 -34 l-22 -22 -65 64 c-61 60 -64
65 -48 82 21 23 40 23 55 -2 21 -33 27 -23 21 30 -5 44 -3 52 18 69 l24 20 8
-42 c5 -23 11 -48 13 -54z m-7582 5 c25 -36 19 -56 -35 -113 -46 -49 -50 -57
-38 -72 8 -10 17 -21 22 -24 4 -3 -4 -16 -17 -28 l-25 -24 -61 61 c-33 33 -60
64 -60 69 0 12 131 139 150 146 30 11 49 6 64 -15z m143 -24 c2 -6 -8 -19 -23
-29 -33 -21 -51 -3 -25 26 17 20 42 22 48 3z m7306 -80 c40 -37 44 -59 15 -78
-15 -9 -25 -4 -60 31 -41 41 -42 43 -23 63 10 11 21 20 24 20 3 0 23 -16 44
-36z m-61 -61 c31 -28 22 -60 -34 -120 l-53 -55 24 -20 25 -19 -25 -25 -25
-24 -64 65 -65 66 76 74 c80 79 106 89 141 58z m-7605 -9 c3 -9 -4 -24 -17
-37 -15 -14 -19 -22 -11 -25 7 -2 20 3 30 12 34 31 66 9 36 -24 -9 -10 -15
-26 -13 -35 3 -14 6 -14 25 4 25 23 39 26 49 10 7 -11 -63 -89 -80 -89 -14 0
-116 107 -116 122 0 16 61 77 78 77 7 1 15 -6 19 -15z m7732 -40 c-34 -37 -56
-9 -22 28 12 14 19 15 30 6 11 -9 10 -15 -8 -34z m-7841 -56 c9 -9 7 -17 -9
-34 -29 -31 -14 -52 17 -23 20 18 26 20 39 9 14 -12 13 -15 -7 -37 -17 -19
-19 -26 -9 -36 10 -9 16 -7 32 12 16 19 22 21 35 11 13 -12 10 -19 -27 -56
-49 -50 -49 -50 -125 35 l-48 53 40 38 c45 44 46 44 62 28z m7483 -102 c-18
-19 -19 -25 -7 -29 8 -3 22 3 32 14 9 10 21 19 26 19 18 0 20 -31 3 -50 -9
-10 -14 -24 -10 -30 5 -8 13 -5 26 9 23 25 26 25 44 7 11 -11 7 -20 -31 -57
l-44 -43 -60 61 c-33 34 -60 65 -60 69 0 5 19 28 42 51 40 41 43 43 52 23 7
-15 4 -26 -13 -44z m-7563 -29 c6 -6 12 -28 14 -47 2 -30 7 -35 28 -36 28 0
32 -10 16 -36 -8 -13 -24 -18 -62 -18 -37 0 -56 -5 -68 -18 -15 -18 -15 -20 4
-37 26 -23 25 -37 -1 -53 -20 -13 -26 -9 -80 44 -33 32 -59 62 -59 67 0 4 31
39 68 78 55 56 74 69 99 69 17 0 35 -6 41 -13z m7475 -51 c-3 -6 -12 -18 -20
-28 -23 -26 5 -34 31 -9 21 19 24 20 36 6 11 -13 9 -19 -9 -39 -26 -28 -10
-47 18 -22 42 38 64 6 25 -36 -52 -54 -56 -54 -123 15 l-60 62 41 42 c32 32
45 40 55 32 7 -6 10 -16 6 -23z m-2563 -61 c0 -46 9 -55 60 -55 16 0 35 -3 44
-6 13 -5 13 -8 -4 -26 -15 -16 -26 -19 -59 -13 -38 6 -41 5 -41 -17 0 -13 5
-29 12 -36 10 -10 8 -16 -7 -32 -20 -19 -21 -19 -82 41 -35 34 -63 63 -63 67
0 3 8 13 18 23 16 16 18 15 45 -9 l27 -26 0 54 c0 35 5 60 16 71 23 26 34 15
34 -36z m2480 -55 c23 -23 24 -33 10 -61 -10 -18 -7 -19 37 -19 l48 0 -28 -27
c-20 -20 -40 -29 -78 -33 -62 -6 -86 -30 -54 -54 16 -12 18 -18 9 -33 -20 -32
-38 -25 -99 37 l-60 61 76 74 c81 80 105 89 139 55z m-7612 -2 c9 -9 7 -17 -9
-34 -29 -31 -14 -52 17 -23 20 18 26 20 39 9 14 -12 13 -15 -6 -37 l-22 -23
23 -25 c24 -25 24 -26 4 -45 -19 -20 -20 -20 -82 43 l-62 63 37 41 c42 47 44
48 61 31z m5042 -126 c0 -14 -36 -43 -43 -35 -4 3 -7 27 -7 52 l0 46 25 -27
c14 -15 25 -31 25 -36z m-102 -55 c3 -43 0 -50 -35 -82 -35 -32 -38 -33 -41
-15 -2 13 6 29 22 41 26 20 34 53 17 63 -5 3 -14 -1 -21 -9 -17 -21 -27 -19
-25 6 2 27 33 51 60 47 16 -2 21 -12 23 -51z m147 23 c3 -5 -3 -20 -15 -32
-15 -17 -23 -19 -32 -10 -9 9 -7 16 7 32 20 22 31 25 40 10z m2309 -9 c3 -5
-3 -20 -14 -34 -26 -33 -7 -47 24 -18 19 18 25 19 35 8 9 -11 7 -20 -8 -38
-20 -24 -19 -24 5 -50 l24 -26 -20 -18 c-20 -18 -21 -18 -80 40 -33 33 -60 64
-60 69 0 15 62 76 76 76 7 0 15 -4 18 -9z m-2587 -101 c1 -38 -3 -70 -7 -70
-16 0 -60 62 -53 73 5 9 42 51 58 67 1 0 1 -31 2 -70z m83 -96 c0 -6 -6 -17
-14 -23 -11 -9 -14 -7 -18 11 -2 13 -2 31 0 41 4 18 4 18 18 0 7 -10 14 -23
14 -29z m-224 -42 c-4 -3 -14 2 -24 12 -16 16 -16 18 3 32 19 14 20 13 23 -11
2 -15 1 -30 -2 -33z m114 34 c0 -17 -35 -48 -43 -39 -13 12 -7 42 10 52 20 11
33 6 33 -13z m-168 -77 c-12 -12 -19 -26 -16 -31 8 -12 32 -10 37 5 4 9 7 9
18 -1 11 -10 11 -16 1 -32 -16 -26 4 -37 28 -15 18 17 50 15 50 -3 0 -4 -18
-25 -40 -47 l-39 -39 -61 61 c-33 34 -60 63 -60 66 0 3 17 23 38 45 31 33 39
38 51 27 11 -11 10 -17 -7 -36z m194 16 c-5 -25 -41 -64 -60 -65 -15 0 5 52
27 71 30 25 38 23 33 -6z m-2744 -62 c2 -32 1 -62 -3 -68 -19 -29 -19 -55 1
-75 18 -18 19 -22 6 -35 -8 -8 -18 -15 -23 -15 -5 0 -35 27 -68 60 l-58 59 24
20 24 20 29 -27 29 -27 -6 43 c-6 46 10 102 29 102 8 0 14 -22 16 -57z m2653
39 c-3 -3 -11 0 -18 7 -9 10 -8 11 6 5 10 -3 15 -9 12 -12z m-167 -93 c8 -12
11 -32 7 -50 -6 -28 -6 -29 36 -29 l42 0 -22 -24 c-23 -25 -37 -28 -198 -42
-90 -8 -90 7 -4 95 77 77 114 91 139 50z m-2383 -19 c-10 -11 -19 -19 -19 -18
-1 2 -8 11 -15 21 -12 15 -10 17 19 17 32 0 33 0 15 -20z m-197 -117 c-16 -20
-34 -16 -72 18 -35 30 -35 31 -18 54 l17 24 42 -42 c33 -31 40 -44 31 -54z
m-98 2 c11 -13 6 -15 -36 -14 l-49 1 30 13 c38 18 40 18 55 0z"/>
<path d="M6900 12546 c0 -2 8 -10 18 -17 15 -13 16 -12 3 4 -13 16 -21 21 -21
13z"/>
<path d="M6880 12526 c0 -2 7 -9 15 -16 9 -7 15 -8 15 -2 0 5 -7 12 -15 16 -8
3 -15 4 -15 2z"/>
<path d="M6910 12300 c6 -11 16 -20 22 -20 6 0 3 9 -7 20 -10 11 -20 20 -22
20 -2 0 1 -9 7 -20z"/>
<path d="M6960 11289 c0 -5 5 -7 10 -4 6 3 10 8 10 11 0 2 -4 4 -10 4 -5 0
-10 -5 -10 -11z"/>
<path d="M4904 10825 c0 -55 1 -76 3 -47 2 29 2 74 0 100 -2 26 -3 2 -3 -53z"/>
<path d="M6000 10655 c0 -8 5 -15 10 -15 6 0 10 7 10 15 0 8 -4 15 -10 15 -5
0 -10 -7 -10 -15z"/>
<path d="M13128 12226 c-23 -28 -24 -32 -8 -32 10 0 16 4 13 9 -3 4 5 16 17
27 11 10 17 20 13 23 -4 2 -20 -10 -35 -27z"/>
<path d="M14248 11593 c7 -3 16 -2 19 1 4 3 -2 6 -13 5 -11 0 -14 -3 -6 -6z"/>
<path d="M14538 11573 c7 -3 16 -2 19 1 4 3 -2 6 -13 5 -11 0 -14 -3 -6 -6z"/>
<path d="M14343 11563 c9 -2 23 -2 30 0 6 3 -1 5 -18 5 -16 0 -22 -2 -12 -5z"/>
<path d="M14447 11443 c-4 -3 -7 -18 -7 -32 l0 -26 15 29 c8 15 15 30 15 32 0
6 -16 5 -23 -3z"/>
<path d="M6930 11075 c-8 -9 -8 -15 -2 -15 12 0 26 19 19 26 -2 2 -10 -2 -17
-11z"/>
<path d="M5810 10055 c-6 -8 -8 -20 -4 -26 4 -7 3 -10 -2 -6 -12 7 -50 -21
-40 -30 9 -10 37 8 50 32 6 11 18 25 26 32 13 11 13 12 -1 13 -9 0 -22 -7 -29
-15z"/>
<path d="M5392 9637 c-30 -31 -41 -57 -24 -57 10 0 82 73 82 83 0 17 -29 4
-58 -26z"/>
<path d="M12782 9471 c-34 -42 -38 -51 -22 -51 16 0 80 61 80 76 0 26 -26 14
-58 -25z"/>
<path d="M7055 8783 c-36 -37 -41 -48 -27 -57 12 -7 94 73 87 84 -10 17 -23
11 -60 -27z"/>
<path d="M14435 8610 c-33 -34 -36 -40 -21 -46 12 -5 29 5 57 32 21 21 39 42
39 46 0 21 -40 4 -75 -32z"/>
<path d="M6646 8379 c-31 -33 -36 -42 -26 -54 11 -13 18 -9 51 27 37 41 44 59
23 64 -5 1 -26 -15 -48 -37z"/>
<path d="M14037 8212 c-29 -30 -34 -41 -25 -50 9 -9 20 -4 50 25 21 20 38 43
38 50 0 24 -25 14 -63 -25z"/>
<path d="M10970 7665 c-37 -38 -41 -45 -26 -51 21 -8 103 67 92 85 -11 18 -19
14 -66 -34z"/>
<path d="M9930 13508 c-89 -51 -326 -153 -455 -196 -150 -50 -378 -107 -515
-127 -163 -25 -571 -31 -744 -11 -157 18 -342 54 -466 90 -47 13 -86 24 -86
23 -1 -1 -10 -78 -20 -172 -15 -133 -19 -248 -19 -525 0 -348 5 -434 41 -700
151 -1120 664 -2127 1414 -2775 246 -213 563 -410 834 -520 l79 -32 76 30 c42
17 135 61 206 97 816 413 1474 1227 1825 2256 45 132 69 212 115 389 116 442
172 1011 147 1492 -12 225 -33 448 -43 457 -2 2 -40 -7 -84 -20 -95 -28 -231
-57 -375 -79 -162 -26 -549 -31 -730 -10 -352 40 -697 143 -1009 301 -69 35
-128 64 -131 64 -3 0 -30 -14 -60 -32z m260 -823 c274 -66 481 -262 571 -540
19 -61 23 -96 27 -282 l4 -211 50 -12 c60 -15 105 -51 129 -105 17 -37 19 -80
19 -660 0 -580 -2 -623 -19 -660 -25 -56 -71 -91 -134 -105 -37 -7 -306 -10
-877 -8 l-825 3 -47 27 c-32 19 -52 41 -67 71 -21 43 -21 54 -21 672 0 618 0
629 21 672 26 53 83 89 155 99 l52 6 5 202 c5 232 15 282 84 424 109 223 339
387 593 423 69 9 208 2 280 -16z"/>
<path d="M9866 12465 c-184 -51 -333 -197 -391 -385 -13 -40 -19 -105 -22
-242 l-5 -188 561 0 561 0 0 163 c0 102 -6 187 -15 230 -42 198 -206 371 -402
422 -70 18 -220 18 -287 0z"/>
<path d="M9928 11014 c-66 -35 -79 -163 -22 -197 11 -6 14 -42 14 -153 0 -80
4 -153 10 -163 5 -10 23 -24 40 -31 25 -10 34 -10 55 4 38 25 45 54 45 196 0
122 1 131 26 167 37 55 30 115 -20 160 -29 27 -44 33 -78 33 -24 -1 -55 -7
-70 -16z"/>
<path d="M3520 7686 c-6 -17 -14 -24 -22 -20 -15 10 -6 -5 60 -98 32 -45 59
-75 66 -71 6 3 29 20 51 37 22 16 42 31 44 32 9 7 -42 63 -51 58 -7 -5 -8 -2
-4 5 5 7 0 21 -10 32 -16 18 -19 18 -42 3 -24 -16 -26 -15 -53 16 l-29 32 -10
-26z"/>
<path d="M3799 7387 c-18 -12 -40 -27 -47 -34 -7 -7 -18 -13 -23 -13 -6 0 98
-169 115 -188 2 -1 28 13 59 31 l56 34 -63 96 -62 96 -35 -22z"/>
<path d="M5877 7112 c-10 -10 -17 -22 -17 -25 0 -4 161 -7 358 -7 l359 0 11
25 12 25 -354 0 c-329 0 -354 -1 -369 -18z"/>
<path d="M6690 7111 c-5 -11 -10 -22 -10 -25 0 -3 106 -6 235 -6 221 0 235 1
245 19 5 11 10 22 10 25 0 3 -106 6 -235 6 -221 0 -235 -1 -245 -19z"/>
<path d="M7276 7114 c-3 -9 -6 -20 -6 -25 0 -5 99 -9 235 -9 221 0 235 1 245
19 5 11 10 22 10 25 0 3 -108 6 -239 6 -209 0 -240 -2 -245 -16z"/>
<path d="M7859 7109 c-5 -10 -9 -20 -9 -23 0 -2 108 -5 240 -6 145 0 240 3
240 9 0 5 3 17 6 26 6 15 -14 16 -230 14 -215 -2 -238 -4 -247 -20z"/>
<path d="M8446 7114 c-3 -9 -6 -20 -6 -25 0 -5 100 -9 239 -9 228 0 239 1 244
19 3 11 2 22 -1 25 -3 3 -110 6 -238 6 -202 0 -233 -2 -238 -16z"/>
<path d="M9027 7123 c-4 -3 -7 -15 -7 -25 0 -17 14 -18 240 -18 l240 0 0 25 0
25 -233 0 c-129 0 -237 -3 -240 -7z"/>
<path d="M9617 7123 c-4 -3 -7 -15 -7 -25 0 -17 14 -18 240 -18 l240 0 0 25 0
25 -233 0 c-129 0 -237 -3 -240 -7z"/>
<path d="M10192 7108 l3 -23 238 -3 237 -2 0 25 0 25 -241 0 -240 0 3 -22z"/>
<path d="M10760 7105 l0 -25 240 0 c139 0 240 4 240 9 0 40 -3 41 -246 41
l-234 0 0 -25z"/>
<path d="M11334 7114 c3 -9 6 -20 6 -25 0 -5 101 -9 241 -9 216 0 241 2 235
16 -3 9 -6 20 -6 25 0 5 -101 9 -241 9 -216 0 -241 -2 -235 -16z"/>
<path d="M11930 7124 c0 -3 5 -14 10 -25 10 -18 24 -19 245 -19 136 0 235 4
235 9 0 41 -3 41 -251 41 -131 0 -239 -3 -239 -6z"/>
<path d="M12520 7125 c0 -4 5 -15 10 -26 10 -18 24 -19 245 -19 193 0 235 2
235 14 0 31 -27 35 -258 36 -128 0 -232 -2 -232 -5z"/>
<path d="M13100 7122 c0 -5 6 -16 13 -25 11 -16 35 -17 250 -15 l237 3 -15 23
c-16 22 -19 22 -251 22 -129 0 -234 -4 -234 -8z"/>
<path d="M13690 7124 c0 -3 5 -14 10 -25 10 -18 24 -19 251 -19 l239 0 -16 25
-16 25 -234 0 c-129 0 -234 -3 -234 -6z"/>
<path d="M5796 7001 c-25 -33 -46 -62 -46 -65 0 -4 110 -5 246 -4 l245 3 40
63 39 62 -239 0 -240 0 -45 -59z"/>
<path d="M6409 7043 c-19 -23 -69 -101 -69 -108 0 -3 110 -4 245 -3 l246 3 34
63 35 62 -239 0 c-214 0 -239 -2 -252 -17z"/>
<path d="M6980 7000 c-16 -33 -30 -62 -30 -65 0 -3 110 -5 244 -5 l243 0 23
53 c12 28 24 58 27 65 4 9 -47 12 -236 12 l-241 0 -30 -60z"/>
<path d="M7561 7016 c-42 -96 -65 -86 213 -86 l244 0 18 53 c9 28 19 58 22 65
3 9 -48 12 -236 12 l-241 0 -20 -44z"/>
<path d="M8157 7007 c-9 -30 -17 -59 -17 -65 0 -9 65 -12 243 -12 l244 0 11
51 c7 28 12 57 12 65 0 12 -39 14 -238 14 l-238 0 -17 -53z"/>
<path d="M8755 7048 c-10 -30 -25 -94 -25 -105 0 -10 56 -13 245 -13 226 0
245 1 246 18 0 9 4 38 8 65 l8 47 -239 0 c-182 0 -240 -3 -243 -12z"/>
<path d="M9346 7038 c-3 -13 -6 -42 -6 -65 l0 -43 245 0 245 0 0 65 0 65 -239
0 -239 0 -6 -22z"/>
<path d="M9920 6995 l0 -65 245 0 245 0 0 28 c0 15 -3 44 -6 65 l-7 37 -238 0
-239 0 0 -65z"/>
<path d="M10514 7044 c3 -9 6 -38 6 -65 l0 -49 251 0 c218 0 250 2 245 15 -3
8 -8 37 -12 65 l-7 50 -244 0 c-219 0 -245 -2 -239 -16z"/>
<path d="M11085 7038 c3 -13 9 -41 13 -63 l8 -40 248 -3 c238 -2 247 -2 242
16 -4 11 -12 39 -19 63 l-13 44 -242 3 -242 2 5 -22z"/>
<path d="M11680 7053 c0 -4 7 -33 16 -65 l17 -58 243 0 c134 0 244 3 244 6 0
4 -10 33 -21 65 l-22 59 -238 0 c-132 0 -239 -3 -239 -7z"/>
<path d="M12291 7008 c12 -29 23 -59 26 -65 4 -10 63 -13 249 -13 134 0 244 2
244 5 0 3 -14 32 -30 65 l-30 60 -240 0 -240 0 21 -52z"/>
<path d="M12860 7053 c1 -5 13 -33 29 -63 l27 -55 248 -3 248 -2 -20 32 c-10
18 -28 48 -38 66 l-18 32 -238 0 c-131 0 -238 -3 -238 -7z"/>
<path d="M13466 7013 c15 -27 32 -56 38 -65 10 -17 40 -18 404 -18 l394 0 -45
63 -45 62 -387 3 -387 2 28 -47z"/>
<path d="M4005 7024 c-22 -13 -39 -28 -38 -34 2 -5 -4 -7 -12 -4 -9 4 -3 -14
16 -50 18 -33 35 -53 41 -50 6 4 8 2 4 -4 -8 -13 24 -82 39 -82 6 0 30 19 53
43 l43 43 -47 82 c-25 45 -49 82 -53 81 -3 0 -24 -12 -46 -25z"/>
<path d="M5687 6853 c-24 -32 -47 -64 -51 -70 -6 -10 74 -13 387 -13 l395 0
36 61 c20 33 36 65 36 70 0 5 -153 9 -379 9 l-380 0 -44 -57z"/>
<path d="M6578 6845 c-21 -35 -38 -66 -38 -69 0 -3 112 -6 249 -6 l249 0 36
65 c20 36 36 68 36 70 0 3 -111 5 -247 5 l-248 0 -37 -65z"/>
<path d="M7192 6840 l-31 -70 253 0 253 0 21 53 c11 28 23 60 27 70 7 16 -9
17 -242 17 l-250 0 -31 -70z"/>
<path d="M7792 6858 c-11 -29 -23 -61 -27 -70 -7 -17 9 -18 248 -18 l254 0 17
58 c9 32 16 64 16 70 0 9 -63 12 -244 12 l-243 0 -21 -52z"/>
<path d="M8411 6872 c-6 -21 -14 -52 -17 -70 l-6 -32 250 0 250 0 11 50 c21
99 44 90 -234 90 l-244 0 -10 -38z"/>
<path d="M9016 6902 c-2 -4 -8 -36 -12 -70 l-7 -62 250 0 250 0 7 46 c3 26 6
57 6 70 l0 24 -244 0 c-135 0 -247 -4 -250 -8z"/>
<path d="M9626 6894 c-3 -9 -6 -40 -6 -70 l0 -54 250 0 250 0 0 70 0 70 -244
0 c-213 0 -245 -2 -250 -16z"/>
<path d="M10210 6871 c0 -21 3 -53 6 -70 l7 -31 248 0 c281 0 254 -10 243 88
l-7 52 -248 0 -249 0 0 -39z"/>
<path d="M10824 6883 c3 -16 8 -47 11 -70 l7 -43 249 0 c283 0 260 -9 237 89
l-11 51 -250 0 -249 0 6 -27z"/>
<path d="M11430 6905 c0 -3 7 -35 16 -70 l16 -65 254 0 c140 0 254 1 254 3 0
1 -11 31 -23 67 l-24 65 -246 3 c-136 1 -247 0 -247 -3z"/>
<path d="M12020 6902 c0 -4 9 -36 21 -70 l21 -62 249 0 c137 0 249 4 249 8 0
5 -11 35 -24 68 l-24 59 -246 3 c-135 1 -246 -1 -246 -6z"/>
<path d="M12630 6906 c0 -2 13 -34 30 -70 l29 -66 251 0 c137 0 250 3 250 7 0
3 -16 35 -35 70 l-36 63 -244 0 c-135 0 -245 -2 -245 -4z"/>
<path d="M13230 6903 c0 -5 15 -35 34 -68 l33 -60 251 -3 c139 -1 252 0 252 3
0 3 -18 35 -41 70 l-41 65 -244 0 c-134 0 -244 -3 -244 -7z"/>
<path d="M13830 6905 c0 -3 18 -35 41 -70 l41 -65 255 0 255 0 -26 35 c-14 19
-38 51 -52 70 l-26 35 -244 0 c-134 0 -244 -2 -244 -5z"/>
<path d="M5561 6683 c-28 -38 -50 -71 -51 -75 0 -5 208 -8 463 -8 l462 0 16
28 c8 15 28 48 43 75 l28 47 -456 0 -456 0 -49 -67z"/>
<path d="M6627 6728 c-29 -48 -67 -117 -67 -122 0 -3 116 -6 258 -6 l258 0 32
65 c18 36 32 70 32 75 0 6 -93 10 -250 10 -248 0 -250 0 -263 -22z"/>
<path d="M7234 6683 c-16 -37 -30 -71 -32 -75 -2 -4 113 -8 256 -8 l260 0 26
71 c14 38 26 72 26 75 0 2 -114 4 -253 4 l-254 0 -29 -67z"/>
<path d="M7865 6740 c-8 -13 -45 -121 -45 -132 0 -4 116 -7 257 -6 l257 3 18
60 c10 33 18 66 18 73 0 15 -495 18 -505 2z"/>
<path d="M8476 6685 c-9 -35 -16 -69 -16 -75 0 -7 86 -10 259 -10 l258 0 7 43
c4 23 9 57 12 75 l6 32 -255 0 -255 0 -16 -65z"/>
<path d="M9105 6738 c-9 -29 -22 -128 -17 -133 3 -3 119 -5 258 -5 l252 0 6
23 c3 12 6 46 6 75 l0 52 -250 0 c-192 0 -252 -3 -255 -12z"/>
<path d="M9728 6679 c-2 -39 -1 -73 1 -75 2 -2 118 -4 258 -4 l253 0 0 75 0
75 -254 0 -254 0 -4 -71z"/>
<path d="M10337 6743 c-2 -5 -2 -38 1 -75 l4 -68 260 0 259 0 -6 58 c-12 102
16 92 -265 92 -137 0 -251 -3 -253 -7z"/>
<path d="M10964 6718 c3 -18 8 -52 12 -75 l7 -43 258 0 c173 0 259 3 259 10 0
6 -7 40 -16 75 l-16 65 -255 0 -255 0 6 -32z"/>
<path d="M11567 6718 c3 -18 12 -50 18 -73 l12 -40 257 -3 c207 -2 256 0 256
11 0 7 -9 41 -21 75 l-21 62 -254 0 -253 0 6 -32z"/>
<path d="M12190 6742 c0 -5 11 -38 24 -73 l24 -64 257 -1 256 -1 -6 24 c-3 13
-16 45 -28 71 l-22 47 -253 3 c-150 2 -252 -1 -252 -6z"/>
<path d="M12820 6740 c0 -5 14 -39 32 -75 l32 -65 258 0 c142 0 258 2 258 3 0
2 -17 35 -38 73 l-37 69 -253 3 c-163 1 -252 -1 -252 -8z"/>
<path d="M13450 6744 c0 -4 17 -38 37 -75 l37 -69 508 0 c279 0 508 2 508 5 0
3 -24 37 -52 75 l-52 70 -493 0 c-271 0 -493 -3 -493 -6z"/>
<path d="M5432 6508 c-28 -40 -50 -73 -48 -75 1 -1 306 -3 676 -3 l674 -1 38
76 38 75 -663 0 -664 0 -51 -72z"/>
<path d="M6912 6568 c-9 -12 -72 -134 -72 -140 0 -2 120 -2 267 -1 l268 2 32
76 32 75 -258 0 c-195 0 -261 -3 -269 -12z"/>
<path d="M7551 6558 c-5 -13 -18 -47 -30 -76 -12 -29 -21 -54 -21 -55 0 -1
121 -1 268 1 l268 3 22 68 c12 37 22 70 22 74 0 4 -117 7 -260 7 l-260 0 -9
-22z"/>
<path d="M8175 6568 c-3 -7 -13 -41 -24 -75 l-19 -63 269 0 269 0 5 23 c14 63
25 113 25 120 0 4 -117 7 -260 7 -200 0 -262 -3 -265 -12z"/>
<path d="M8808 6505 l-15 -75 267 0 267 0 7 46 c3 26 6 60 6 75 l0 29 -259 0
-258 0 -15 -75z"/>
<path d="M9446 6528 c-3 -29 -6 -63 -6 -75 l0 -23 265 0 265 0 0 75 0 75 -259
0 -258 0 -7 -52z"/>
<path d="M10100 6505 l0 -75 265 0 265 0 0 29 c0 15 -3 49 -6 75 l-7 46 -258
0 -259 0 0 -75z"/>
<path d="M10720 6551 c0 -15 3 -49 6 -75 l7 -46 267 0 267 0 -15 75 -15 75
-258 0 -259 0 0 -29z"/>
<path d="M11360 6575 c0 -4 4 -25 9 -48 6 -23 12 -54 16 -69 l5 -28 269 0 269
0 -22 73 -23 72 -261 3 c-144 1 -262 0 -262 -3z"/>
<path d="M11980 6574 c0 -4 9 -38 20 -75 l21 -69 269 0 269 0 -26 63 c-14 34
-30 68 -35 75 -8 9 -73 12 -264 12 -140 0 -254 -3 -254 -6z"/>
<path d="M12623 6568 c3 -7 17 -41 32 -75 l28 -63 269 0 268 0 -39 73 -39 72
-262 3 c-209 2 -261 0 -257 -10z"/>
<path d="M13240 6574 c0 -4 17 -37 37 -75 l37 -69 678 -2 c373 -2 678 -1 678
2 0 3 -24 37 -53 75 l-52 70 -663 3 c-364 1 -662 -1 -662 -4z"/>
<path d="M13517 6375 l17 -35 273 0 272 0 -20 35 -21 35 -269 0 -269 0 17 -35z"/>
<path d="M14160 6402 c0 -5 21 -41 46 -80 l46 -72 274 0 c224 0 274 2 267 13
-4 7 -30 43 -56 80 l-49 67 -264 0 c-145 0 -264 -4 -264 -8z"/>
<path d="M5296 6325 c-31 -41 -56 -77 -56 -80 0 -3 123 -5 274 -5 l273 0 41
64 c69 106 91 96 -211 96 l-265 0 -56 -75z"/>
<path d="M5966 6353 c-16 -27 -38 -63 -49 -80 l-19 -33 275 0 275 0 41 76 c23
41 41 77 41 80 0 2 -120 4 -268 4 l-267 0 -29 -47z"/>
<path d="M6611 6324 c-23 -41 -41 -77 -41 -80 0 -2 124 -4 275 -4 l275 0 9 23
c5 12 21 48 35 80 l26 57 -269 0 -269 0 -41 -76z"/>
<path d="M7266 6333 c-15 -37 -30 -73 -33 -80 -4 -11 64 -13 356 -13 l360 0
16 53 c9 28 20 64 25 80 l9 27 -352 0 -352 0 -29 -67z"/>
<path d="M8125 6333 c-10 -38 -20 -74 -23 -80 -3 -10 320 -13 1597 -13 881 0
1601 1 1601 3 0 9 -22 124 -26 140 -5 16 -88 17 -1568 17 l-1563 0 -18 -67z"/>
<path d="M11400 6383 c1 -10 6 -45 13 -78 l13 -60 357 -3 c278 -2 357 0 357
10 0 7 -10 43 -21 80 l-22 68 -348 0 c-326 0 -349 -1 -349 -17z"/>
<path d="M12200 6393 c0 -3 12 -39 27 -80 l28 -73 273 0 c215 0 273 3 269 13
-3 6 -17 42 -33 80 l-28 67 -268 0 c-147 0 -268 -3 -268 -7z"/>
<path d="M12876 6343 c14 -32 30 -68 35 -80 l9 -23 275 0 c151 0 275 2 275 4
0 3 -18 39 -41 80 l-41 76 -269 0 -269 0 26 -57z"/>
<path d="M13560 6305 c0 -3 7 -19 15 -35 l16 -30 275 0 276 0 -19 33 -19 32
-272 3 c-150 1 -272 0 -272 -3z"/>
<path d="M4758 5085 c-26 -7 -51 -16 -56 -19 -7 -4 32 -203 42 -214 4 -4 110
20 118 27 11 10 -37 222 -50 220 -4 -1 -28 -7 -54 -14z"/>
<path d="M13863 4795 c0 -22 2 -30 4 -17 2 12 2 30 0 40 -3 9 -5 -1 -4 -23z"/>
<path d="M13998 4813 c7 -3 16 -2 19 1 4 3 -2 6 -13 5 -11 0 -14 -3 -6 -6z"/>
<path d="M14295 4770 c-28 -7 -28 -8 -5 -9 14 0 32 4 40 9 17 11 8 11 -35 0z"/>
<path d="M13850 4745 c0 -5 5 -17 10 -25 5 -8 10 -10 10 -5 0 6 -5 17 -10 25
-5 8 -10 11 -10 5z"/>
<path d="M13918 4703 c6 -2 18 -2 25 0 6 3 1 5 -13 5 -14 0 -19 -2 -12 -5z"/>
<path d="M14878 4613 c7 -3 16 -2 19 1 4 3 -2 6 -13 5 -11 0 -14 -3 -6 -6z"/>
</g>
</svg>
